<svg fill="#6D8E87" xmlns="http://www.w3.org/2000/svg" xmlns:xlink="http://www.w3.org/1999/xlink" version="1.1" x="0px" y="0px" viewBox="0 0 100 100" enable-background="new 0 0 100 100" xml:space="preserve"><g><polygon stroke="#6D8E87" stroke-miterlimit="10" points="13.2,42.5 15.2,48 21.1,48.2 16.5,51.9 18,57.5 13.2,54.2 8.3,57.5    9.9,51.9 5.3,48.2 11.1,48  "></polygon><polygon stroke="#6D8E87" stroke-miterlimit="10" points="31.6,42.5 33.6,48 39.5,48.2 34.9,51.9 36.5,57.5 31.6,54.2 26.7,57.5    28.3,51.9 23.7,48.2 29.6,48  "></polygon><polygon stroke="#6D8E87" stroke-miterlimit="10" points="50,42.5 52,48 57.9,48.2 53.3,51.9 54.9,57.5 50,54.2 45.1,57.5    46.7,51.9 42.1,48.2 48,48  "></polygon><polygon stroke="#6D8E87" stroke-miterlimit="10" points="68.4,42.5 70.4,48 76.3,48.2 71.7,51.9 73.3,57.5 68.4,54.2 63.5,57.5    65.1,51.9 60.5,48.2 66.4,48  "></polygon><polygon stroke="#6D8E87" stroke-miterlimit="10" points="86.8,42.5 88.9,48 94.7,48.2 90.1,51.9 91.7,57.5 86.8,54.2 82,57.5    83.5,51.9 78.9,48.2 84.8,48  "></polygon></g></svg>